<svg xmlns="http://www.w3.org/2000/svg" width="142" height="25" viewBox="0 0 142 25" fill="none"><path d="M130.239 3.25822C130.128 3.05655 130.002 3.00377 129.789 3.00377C127.493 3.01131 125.199 3.01319 122.904 3C122.636 3 122.502 3.08482 122.376 3.31288C118.508 10.3113 114.622 17.2927 110.756 24.293C113.04 24.293 115.312 24.2893 117.596 24.2987C117.818 24.2987 117.931 24.2252 118.037 24.0348C120.8 19.0174 123.543 13.9924 126.323 8.98437C129.099 13.998 131.847 19.0174 134.608 24.0367C134.716 24.2308 134.833 24.2987 135.053 24.2987C137.33 24.2893 139.6 24.293 141.878 24.293C138.024 17.2664 134.105 10.2774 130.236 3.25822H130.239Z" fill="#06092E"></path><path d="M100.69 3.00583C100.481 3.00583 100.349 3.05672 100.219 3.24143C97.3335 7.37112 94.4572 11.4895 91.5565 15.6098C88.6953 11.4876 85.8435 7.36735 82.9918 3.24143C82.8749 3.0718 82.758 3.00206 82.5488 3.00394C80.37 3.01337 78.208 3.0096 76.0254 3.0096C80.8185 10.0231 85.64 17.0121 90.4312 24.0274C90.5971 24.2706 90.7667 24.3667 91.0551 24.3479C91.4735 24.3215 91.8958 24.3535 92.3161 24.3328C92.4292 24.3271 92.5743 24.2499 92.6421 24.1575C97.5031 17.1176 102.351 10.0702 107.186 3.0096C105.014 3.0096 102.86 3.01337 100.69 3.00583Z" fill="#06092E"></path><path d="M35.543 24.2788H42.0362V3.02344H35.543V24.2788Z" fill="#06092E"></path><path d="M46.7334 8.47441H71.2815V3.02344H46.7334V8.47441Z" fill="#06092E"></path><path d="M55.7842 24.2793H62.2793V10.9082H55.7842V24.2793Z" fill="#06092E"></path><path d="M82.5229 18.0735C82.5229 17.9642 82.4701 17.8398 82.4079 17.7493H82.406C80.2742 14.7128 78.2103 11.6255 76.0371 8.61914V24.2803H82.5115C82.553 22.2126 82.5153 20.1431 82.5229 18.0735Z" fill="#06092E"></path><path d="M100.702 18.1298C100.694 20.1806 100.698 22.2275 100.698 24.2782H107.165V8.61328C105.02 11.6422 102.932 14.7032 100.811 17.7491C100.74 17.8528 100.702 18.0017 100.702 18.1298Z" fill="#06092E" stroke="#06092E" stroke-width="0.71" stroke-linecap="round" stroke-linejoin="round"></path><path d="M124.517 16.5059L122.811 19.5084H129.825L128.121 16.5059H124.517Z" fill="#06092E"></path><path d="M11.5248 4.89518C11.5248 6.17836 11.979 7.33345 12.8639 8.18812C13.176 8.50018 13.3553 8.63526 13.5812 8.88444C14.3939 9.75774 14.8876 10.9291 14.8923 12.2146C14.89 13.6189 14.2985 14.8811 13.353 15.7707C13.162 15.9454 12.964 16.1084 12.7498 16.2598C11.802 17.1517 11.2104 18.4186 11.2104 19.8159C11.2104 22.5127 13.3856 24.6994 16.0847 24.6948C18.7837 24.6948 20.9635 22.501 20.9705 19.7996C20.9705 18.4 20.3883 17.1424 19.4498 16.2505C19.3496 16.1713 19.2542 16.0805 19.1657 15.999C18.2248 15.1117 17.645 13.8518 17.645 12.4499C17.645 11.0479 18.2481 9.76706 19.1959 8.88211C19.3659 8.71909 19.5429 8.58169 19.7339 8.44662C20.6864 7.55236 21.2826 6.28315 21.2849 4.87888C21.2849 2.18211 19.1098 -0.0046502 16.4107 7.42651e-06C13.7209 0.00466506 11.5318 2.19375 11.5248 4.89518ZM11.5248 4.89518V4.89984V4.89518Z" fill="#06092E"></path><path d="M12.5003 8.41499C11.7341 7.67676 11.294 6.71263 11.1869 5.63672C10.8585 6.37728 10.3252 7.03634 9.6056 7.52306C8.54133 8.238 7.28377 8.43362 6.12635 8.17047C5.8958 8.11458 5.67223 8.04937 5.44867 7.9632C4.28892 7.70005 3.0267 7.898 1.96942 8.61061C-0.0706173 9.98694 -0.617888 12.7512 0.763098 14.7936C2.13943 16.836 4.91304 17.3716 6.96473 15.9976C8.02666 15.2827 8.68106 14.2021 8.87668 13.0354C8.88599 12.9189 8.90463 12.8025 8.92326 12.693C9.11655 11.5286 9.7756 10.4457 10.8352 9.73077C11.5269 9.26501 12.3117 9.02281 13.0942 8.98089C12.9195 8.80623 12.7542 8.66883 12.5003 8.41499Z" fill="#06092E"></path><path d="M31.4825 9.64787C30.0689 7.6381 27.2859 7.14439 25.2599 8.55332H25.2552C24.2934 9.22402 23.6716 10.2045 23.4481 11.2687C23.4457 11.5738 23.4155 11.8789 23.3479 12.1793C23.1197 13.2436 22.5026 14.2286 21.5408 14.904C20.877 15.3674 20.1342 15.6236 19.3843 15.6911C19.4262 15.7354 19.4704 15.7773 19.5147 15.8192C19.6032 15.9007 19.6987 15.9916 19.7988 16.0707C20.5883 16.8229 21.1262 17.8337 21.2753 18.9701C21.592 18.2389 22.1067 17.5821 22.8123 17.0908C23.8603 16.3572 25.1341 16.1383 26.2939 16.3828C26.5035 16.4247 26.7014 16.4853 26.9017 16.5575C28.0707 16.802 29.333 16.5831 30.3833 15.8495C32.4 14.4359 32.8984 11.6646 31.4825 9.64787Z" fill="#06092E"></path></svg>