<svg width="64" height="49" viewBox="0 0 64 49" fill="none" xmlns="http://www.w3.org/2000/svg">
<path d="M22.338 9.71314C22.338 12.2592 23.267 14.5512 25.0774 16.2471C25.7159 16.8663 26.0827 17.1343 26.5448 17.6287C28.2076 19.3616 29.2176 21.6859 29.2271 24.2366C29.2223 27.023 28.0122 29.5275 26.0779 31.2927C25.6873 31.6393 25.2823 31.9627 24.844 32.2631C22.9049 34.0329 21.6948 36.5467 21.6948 39.3192C21.6948 44.6702 26.1446 49.0092 31.6664 49C37.1882 49 41.6475 44.6471 41.6618 39.2869C41.6618 36.5097 40.4708 34.0144 38.5508 32.2446C38.3459 32.0875 38.1506 31.9073 37.9695 31.7456C36.0448 29.985 34.8585 27.4851 34.8585 24.7033C34.8585 21.9215 36.0924 19.38 38.0315 17.6241C38.3792 17.3006 38.7413 17.028 39.132 16.76C41.0806 14.9856 42.3002 12.4672 42.305 9.68079C42.305 4.32979 37.8552 -0.00922705 32.3334 1.47359e-05C26.8307 0.00925653 22.3523 4.3529 22.338 9.71314ZM22.338 9.71314V9.72238V9.71314Z" fill="#A3A9E9"/>
<path d="M24.8532 16.6006C23.3299 15.0829 22.4548 13.1007 22.2418 10.8887C21.5889 12.4112 20.5286 13.7662 19.0979 14.7669C16.9819 16.2367 14.4816 16.6389 12.1805 16.0979C11.7221 15.983 11.2776 15.8489 10.8331 15.6718C8.52726 15.1307 6.01771 15.5377 3.91562 17.0028C-0.140402 19.8325 -1.22849 25.5157 1.5172 29.7147C4.25362 33.9136 9.76814 35.0149 13.8473 32.19C15.9587 30.7201 17.2597 28.4985 17.6487 26.0998C17.6672 25.8604 17.7042 25.621 17.7413 25.396C18.1256 23.002 19.4359 20.7757 21.5426 19.3058C22.9178 18.3482 24.4782 17.8503 26.0339 17.7641C25.6866 17.405 25.3579 17.1225 24.8532 16.6006Z" fill="#E8EAFA"/>
<path d="M62.3722 19.114C59.5205 15.018 53.9063 14.0119 49.819 16.8833H49.8096C47.8693 18.2502 46.6149 20.2483 46.1639 22.4173C46.1592 23.039 46.0982 23.6608 45.9619 24.273C45.5015 26.442 44.2565 28.4496 42.3162 29.826C40.9773 30.7705 39.4786 31.2926 37.9658 31.4302C38.0504 31.5204 38.1397 31.6058 38.2289 31.6912C38.4074 31.8573 38.6001 32.0424 38.8021 32.2038C40.3947 33.7368 41.48 35.7966 41.7806 38.1128C42.4196 36.6225 43.4578 35.2841 44.8814 34.2826C46.9955 32.7876 49.5653 32.3415 51.905 32.8398C52.3278 32.9252 52.7271 33.0486 53.1311 33.1958C55.4896 33.6941 58.0359 33.248 60.1547 31.7529C64.2233 28.872 65.2286 23.2241 62.3722 19.114Z" fill="#E8EAFA"/>
</svg>
